<?xml version="1.0" encoding="UTF-8" standalone="no"?>
<!-- Created with Inkscape (http://www.inkscape.org/) -->

<svg
   version="1.1"
   id="svg18603"
   xml:space="preserve"
   width="1066.6667"
   height="1066.6667"
   viewBox="0 0 1066.6667 1066.6667"
   sodipodi:docname="yoga-pose.silhouette-vector-pdv.svg"
   inkscape:version="1.1.2 (b8e25be833, 2022-02-05)"
   xmlns:inkscape="http://www.inkscape.org/namespaces/inkscape"
   xmlns:sodipodi="http://sodipodi.sourceforge.net/DTD/sodipodi-0.dtd"
   xmlns="http://www.w3.org/2000/svg"
   xmlns:svg="http://www.w3.org/2000/svg"><defs
     id="defs18607"><clipPath
       clipPathUnits="userSpaceOnUse"
       id="clipPath18617"><path
         d="M 0,800 H 800 V 0 H 0 Z"
         id="path18615" /></clipPath></defs><sodipodi:namedview
     id="namedview18605"
     pagecolor="#ffffff"
     bordercolor="#666666"
     borderopacity="1.0"
     inkscape:pageshadow="2"
     inkscape:pageopacity="0.0"
     inkscape:pagecheckerboard="0"
     showgrid="false"
     inkscape:zoom="0.77906244"
     inkscape:cx="533.33337"
     inkscape:cy="533.33337"
     inkscape:window-width="1920"
     inkscape:window-height="1018"
     inkscape:window-x="-8"
     inkscape:window-y="-8"
     inkscape:window-maximized="1"
     inkscape:current-layer="g18609" /><g
     id="g18609"
     inkscape:groupmode="layer"
     inkscape:label="yoga-pose.silhouette-vector-pdv"
     transform="matrix(1.3333333,0,0,-1.3333333,0,1066.6667)"><g
       id="g18611"><g
         id="g18613"
         clip-path="url(#clipPath18617)"><path
           d="m 311.218,98.069 c 2.143,-0.502 3.833,-0.929 4.972,-1.265 3.517,-1.032 7.026,-2.211 10.713,-2.623 5.448,-0.607 7.174,-3.791 24.47,-9.866 11.516,-4.053 8.611,-1.467 12.327,-2.092 23.747,-4.028 16.455,-0.554 17.075,-16.619 0.163,-4.334 4.439,-7.093 8.575,-5.87 2.174,0.649 4.195,1.447 5.506,3.421 0.325,0.489 3.06,2.995 4.278,0.407 1.843,-3.944 1.525,-6.561 4.165,-8.175 3.479,-2.14 8.84,-1.305 11.641,1.782 0.745,0.827 1.269,1.925 2.337,2.36 3.369,1.37 4.992,4.704 7.704,6.826 1.498,1.158 2.198,3.297 1.83,5.19 -0.93,4.726 0.338,9.483 -1.137,13.243 -5.558,14.192 -11.198,14.022 -13.535,17.237 -6.046,8.36 -22.929,24.093 -11.222,34.886 3.067,2.833 3.341,4.881 16.176,1.402 19.818,-5.382 39.09,-16.986 52.037,-22.856 3.272,-1.488 6.304,-3.192 7.882,-6.781 0.606,-1.379 4.475,-3.119 10.919,-5.001 l -25.288,89.968 z"
           style="fill:#ffce00;fill-opacity:1;fill-rule:nonzero;stroke:none"
           id="path18619" /><path
           d="m 602.156,229.743 c 3.655,-16.842 6.666,-26.277 14.545,-39.658 0.273,-0.465 0.795,-0.958 0.473,-1.504 -0.4,-0.681 -1.219,-0.518 -1.808,-0.354 -3.222,0.863 -6.583,1.474 -9.606,2.816 -3.7,1.628 -7.631,2.447 -11.34,3.967 -12.592,5.175 -5.086,3.259 -21.623,9.656 -8.723,3.384 -2.087,1.513 -23.07,10.417 -0.471,0.202 -0.865,0.471 -1.211,0.78 L 462.643,193.643 593.986,88.909 c 22.456,-1.205 46.07,-1.388 68.824,0.095 l -5.387,155.04 z"
           style="fill:#f0d03e;fill-opacity:1;fill-rule:nonzero;stroke:none"
           id="path18621" /><path
           d="m 558.42,217.081 c 2.89,1.581 4.445,-2.838 5.257,-1.268 1.01,1.993 2.006,0.916 3.155,0.29 2.92,-1.616 6.215,-2.443 9.039,-4.27 1.651,-1.061 1.791,1.712 -1.593,2.631 -2.638,0.724 -4.563,2.735 -7.062,3.696 -2.079,0.801 -0.375,1.489 -0.439,2.429 L 555.8,217.748 c 0.454,-0.171 0.902,-0.352 1.345,-0.549 0.383,-0.16 0.959,-0.294 1.275,-0.118"
           style="fill:#f0d03e;fill-opacity:1;fill-rule:nonzero;stroke:none"
           id="path18623" /><path
           d="M 487.931,103.675 C 506.852,98.143 547.986,91.38 593.986,88.909 L 462.643,193.643 Z"
           style="fill:#f6e63c;fill-opacity:1;fill-rule:nonzero;stroke:none"
           id="path18625" /><path
           d="m 105.958,172.845 c 8.447,-18.778 32.798,-30.462 45.091,-38.394 l 10.237,84.392 z"
           style="fill:#fb6800;fill-opacity:1;fill-rule:nonzero;stroke:none"
           id="path18627" /><path
           d="m 662.81,89.004 c 9.493,0.619 18.836,1.528 27.883,2.772 7.43,1.027 11.058,0.428 28.281,9.601 3.922,2.085 7.151,5.077 9.6,8.685 4.24,6.232 5.359,12.452 5.08,18.48 l -76.231,115.502 z"
           style="fill:#c7df70;fill-opacity:1;fill-rule:nonzero;stroke:none"
           id="path18629" /><path
           d="M 326.14,291.294 278.744,104.837 c 13.548,-2.675 25.454,-5.124 32.474,-6.768 l 151.425,95.574 z"
           style="fill:#feb200;fill-opacity:1;fill-rule:nonzero;stroke:none"
           id="path18631" /><path
           d="m 120.524,223.469 c -15.086,-9.05 -16.431,-22.279 -17.419,-34.24 -0.497,-5.997 0.626,-11.436 2.853,-16.384 l 55.328,45.998 z"
           style="fill:#f35c00;fill-opacity:1;fill-rule:nonzero;stroke:none"
           id="path18633" /><path
           d="m 733.654,128.542 c -0.286,6.256 -2.076,12.31 -3.444,17.954 -1.896,7.832 -4.452,25.018 -17.282,51.182 -14.755,30.096 -22.773,45.26 -28.665,55.727 l -26.84,-9.361 z"
           style="fill:#d3bf54;fill-opacity:1;fill-rule:nonzero;stroke:none"
           id="path18635" /><path
           d="m 151.049,134.451 c 0.572,-0.37 1.121,-0.732 1.638,-1.084 2.617,-1.793 5.22,-3.466 8.25,-4.285 7.07,-1.916 13.89,-4.791 21.307,-5.426 5.013,-0.428 9.569,-2.89 14.628,-3.4 0.848,-0.084 20.629,-3.696 43.958,-8.107 l -79.544,106.694 z"
           style="fill:#ff8500;fill-opacity:1;fill-rule:nonzero;stroke:none"
           id="path18637" /><path
           d="m 270.269,266.739 c 0.952,-3.254 1.851,-7.171 2.71,-12.343 0.494,-2.941 0.494,-3.001 -2.425,-3.348 -17.852,-2.095 -32.295,-3.211 -46.527,-4.631 L 161.286,218.843 240.83,112.149 c 12.405,-2.347 25.814,-4.922 37.914,-7.312 l 47.396,186.457 z"
           style="fill:#fe9400;fill-opacity:1;fill-rule:nonzero;stroke:none"
           id="path18639" /><path
           d="m 150.307,233.54 c -4.572,-1.153 -9.361,-2.41 -14.408,-3.791 -6.29,-1.72 -11.325,-3.85 -15.375,-6.28 l 40.762,-4.626 z"
           style="fill:#f04f00;fill-opacity:1;fill-rule:nonzero;stroke:none"
           id="path18641" /><path
           d="m 161.245,236.191 c -3.507,-0.814 -7.145,-1.696 -10.938,-2.651 l 10.979,-14.697 z"
           style="fill:#f64e00;fill-opacity:1;fill-rule:nonzero;stroke:none"
           id="path18643" /><path
           d="m 657.423,244.044 -68.905,49.692 c 7.108,-30.827 10.598,-49.978 13.638,-63.993 z"
           style="fill:#fb9b00;fill-opacity:1;fill-rule:nonzero;stroke:none"
           id="path18645" /><path
           d="m 548.516,215.863 c -1.137,1.014 -1.725,2.497 -2.608,3.712 -0.53,0.723 -1.938,1.541 -1.149,2.476 0.885,1.055 1.99,0.163 2.883,-0.588 2.379,-1.983 5.353,-2.662 8.158,-3.715 l 10.977,2.841 c -0.023,0.373 -0.327,0.782 -1.257,1.258 -5.162,2.637 -6.776,3.058 -7.298,5.308 -0.355,1.489 -4.1,0.913 -3.755,3.935 0.171,1.452 -1.541,2.197 -2.704,2.528 -6.179,1.749 -10.677,6.201 -15.823,9.593 -14.156,9.334 -14.834,9.835 -21.499,17.754 -5.174,6.164 -8.958,9.577 -8.094,14.288 1.954,10.587 -1.961,15.881 -0.481,19.869 4.742,12.792 -6.996,30.413 -7.187,41.501 -0.294,17.253 -2.964,11.628 0.921,17.879 0.457,0.737 1.223,1.099 0.76,2.16 -0.103,0.232 -0.113,0.466 -0.064,0.698 l -38.703,27.911 1.05,-191.628 z"
           style="fill:#fb9b00;fill-opacity:1;fill-rule:nonzero;stroke:none"
           id="path18647" /><path
           d="m 410.974,321.126 c 0.037,-3.267 -2.705,-4.697 2.484,-9.85 0.523,-0.516 1.586,-0.797 1.246,-1.74 -0.383,-1.106 -1.518,-0.634 -2.345,-0.744 -0.338,-0.045 -4.04,-0.008 -5.3,0.229 -5.139,1.002 -2.013,3.198 -7.027,5.632 -3.361,1.637 -8.715,3.022 -9.548,6.959 -0.941,4.418 0.241,9.644 0.297,14.531 l -64.641,-44.849 136.503,-97.651 -1.05,191.628 -38.126,-26.452 c -7.441,-14.595 -12.605,-27.557 -12.493,-37.693"
           style="fill:#ffa300;fill-opacity:1;fill-rule:nonzero;stroke:none"
           id="path18649" /><path
           d="m 224.027,246.417 c -18.825,-1.88 -37.288,-4.298 -62.782,-10.226 l 0.041,-17.348 z"
           style="fill:#fd7700;fill-opacity:1;fill-rule:nonzero;stroke:none"
           id="path18651" /><path
           d="m 246.781,362.088 c 11.207,-79.605 18.187,-77.244 23.488,-95.349 l 55.871,24.555 z"
           style="fill:#fd7700;fill-opacity:1;fill-rule:nonzero;stroke:none"
           id="path18653" /><path
           d="m 535.122,413.505 c -0.707,-3.59 -2.795,-6.775 -3.781,-10.344 -9.688,-34.85 21.939,-26.49 35.712,-35.507 8.118,-5.314 15.526,-48.932 17.369,-56.57 1.49,-6.169 2.848,-11.934 4.096,-17.348 l 68.905,-49.692 -3.267,63.799 c -7.105,14.008 -16.495,33.071 -29.537,60.225 -8.405,17.48 -17.341,34.858 -22.737,53.621 -3.199,11.101 -4.708,12.206 -7.192,16.896 l -59.246,-23.732 c -0.121,-0.444 -0.231,-0.891 -0.322,-1.348"
           style="fill:#f56500;fill-opacity:1;fill-rule:nonzero;stroke:none"
           id="path18655" /><path
           d="m 501.731,359.494 c 0.119,5.382 3.524,10.336 1.807,15.851 0.787,5.249 0.404,10.469 0.567,15.675 0.108,3.739 -0.299,7.598 -0.879,10.928 l -41.633,-16.677 38.703,-27.911 c 0.199,0.965 1.435,1.866 1.435,2.134"
           style="fill:#f56500;fill-opacity:1;fill-rule:nonzero;stroke:none"
           id="path18657" /><path
           d="m 684.263,253.405 c -9.284,16.489 -13.305,21.314 -30.107,54.438 l 3.267,-63.799 z"
           style="fill:#e07000;fill-opacity:1;fill-rule:nonzero;stroke:none"
           id="path18659" /><path
           d="m 390.589,339.542 c -0.65,4.514 -2.043,9.068 -1.202,13.551 0.604,3.215 1.946,6.135 2.418,9.349 0.176,1.187 2.816,26.365 2.448,37.115 -0.118,3.583 -1.815,6.982 -1.063,10.616 0.509,2.418 2.088,4.419 2.822,6.74 l -54.121,26.11 -15.751,-151.729 64.641,44.849 c 0.013,1.156 -0.036,2.295 -0.192,3.399"
           style="fill:#ff8800;fill-opacity:1;fill-rule:nonzero;stroke:none"
           id="path18661" /><path
           d="m 423.467,358.819 38.126,26.452 -18.617,8.983 c -6.942,-12.404 -13.877,-24.388 -19.509,-35.435"
           style="fill:#ff8800;fill-opacity:1;fill-rule:nonzero;stroke:none"
           id="path18663" /><path
           d="m 341.891,443.023 -107.778,-2.5 c -2.279,-10.264 -2.74,-22.64 2.822,-35.171 5.352,-12.077 7.327,-24.979 9.105,-37.926 0.249,-1.821 0.496,-3.597 0.741,-5.338 l 79.359,-70.794 z"
           style="fill:#fd7400;fill-opacity:1;fill-rule:nonzero;stroke:none"
           id="path18665" /><path
           d="m 325.156,544.451 c -1.813,-1.781 -3.736,-3.461 -6.046,-4.755 -4.225,-2.359 -7.963,-5.796 -11.693,-9.039 -8.722,-7.594 -5.589,-3.229 -18.667,-16.566 -2.072,-2.116 -3.385,-4.947 -6.194,-6.393 -6.797,-3.509 -12.813,-8.065 -17.974,-13.742 -3.038,-3.333 -10.986,-5.957 -11.819,-8.471 -1.01,-3.068 -2.617,-5.877 -3.738,-8.884 -2.425,-6.503 -5.153,-6.23 -6.06,-11.391 -0.448,-2.547 -6.037,-12.006 -8.852,-24.687 l 107.778,2.5 z"
           style="fill:#fa6200;fill-opacity:1;fill-rule:nonzero;stroke:none"
           id="path18667" /><path
           d="m 461.593,385.271 -4.544,35.33 c -4.402,-8.87 -9.238,-17.71 -14.073,-26.347 z"
           style="fill:#ff7200;fill-opacity:1;fill-rule:nonzero;stroke:none"
           id="path18669" /><path
           d="m 396.012,416.913 c 0.053,0.168 0.113,0.335 0.157,0.508 0.959,3.804 -1.555,1.776 4.689,15.224 4.454,9.606 9.186,19.095 13.101,28.946 6.746,16.934 3.915,14.228 6.569,17.783 1.755,2.358 1.799,3.7 0,6 -1.157,1.459 -2.056,5.81 -0.36,6.364 0.773,0.257 1.268,-0.341 1.569,-0.938 0.664,-1.29 1.667,-2.587 1.755,-3.936 0.193,-2.699 1.269,-5.183 1.475,-7.853 0.442,-5.441 6.487,-0.671 4.32,-5.595 -1.356,-3.061 -2.639,-6.119 -3.163,-9.474 -1.342,-8.677 5.817,-15.918 14.495,-14.562 5.787,0.902 9.548,2.802 12.14,4.559 L 438.493,564.826 341.891,443.023 Z"
           style="fill:#ff7200;fill-opacity:1;fill-rule:nonzero;stroke:none"
           id="path18671" /><path
           d="m 452.759,453.939 c 4.637,3.144 5.526,5.83 7.494,1.517 0.242,-0.531 0.545,-1.018 1.113,-1.173 1.614,-0.442 2.138,-1.849 2.012,-3.119 -0.221,-2.248 1.769,-4.57 -0.265,-6.767 -1.091,-1.188 4.424,-0.213 2.285,-5.44 -2.479,-6.095 -5.312,-12.232 -8.349,-18.356 l 4.544,-35.33 41.633,16.677 c -0.758,4.352 -1.807,7.796 -2.379,8.874 -1.453,2.75 1.165,5.072 -2.034,11.104 -12.24,23.112 -13.08,19.551 -9.822,22.264 1.232,1.025 2.831,1.253 3.995,2.367 2.641,2.537 2.154,2.905 -1.133,9.075 -0.644,1.209 -0.2,1.933 1.045,2.183 5.397,1.04 10.808,1.711 16.14,-0.25 3.737,-1.372 2.308,1.665 6.296,0.369 8.427,-2.728 20.488,2.728 22.493,3.339 1.003,0.31 1.556,-0.081 1.711,-0.966 0.9,-5.042 2.057,-10.071 1.858,-15.21 -0.081,-1.939 -0.007,-3.753 0.487,-5.596 0.198,-0.751 0.523,-1.592 0.36,-2.293 -0.772,-3.324 -1.127,-6.724 -2.041,-10.034 -1.17,-4.269 -3.6,-8.031 -4.758,-12.321 l 59.246,23.732 c -0.701,1.323 -1.478,2.93 -2.392,5.126 -1.499,3.606 -2.964,7.241 -5.258,10.447 -20.9,29.196 -20.533,27.913 -19.457,29.093 3.303,3.672 -1.119,5.543 4.484,12.475 0.371,0.463 0.746,0.661 1.166,0.71 l -134.74,68.39 z"
           style="fill:#fc6300;fill-opacity:1;fill-rule:nonzero;stroke:none"
           id="path18673" /><path
           d="m 598.755,532.795 c -0.014,0 -0.059,-0.051 -0.059,-0.051 0,0 0.074,0.051 0.059,0.051"
           style="fill:#f23700;fill-opacity:1;fill-rule:nonzero;stroke:none"
           id="path18675" /><path
           d="m 573.233,496.436 c 0.916,0.106 2.056,-0.504 3.907,-0.651 3.494,-0.265 4.334,0.177 5.72,3.317 1.297,2.964 2.373,6.016 3.17,9.171 1.335,5.302 2.913,4.13 5.92,15.439 1.269,4.77 3.333,0.479 5.582,6.4 0.353,0.914 0.353,2.005 1.238,2.683 l -0.074,-0.051 c -0.582,2.736 -1.518,5.33 -2.772,7.851 -5.824,11.708 -6.54,18.035 -8.173,24.562 l -149.258,-0.331 z"
           style="fill:#f23700;fill-opacity:1;fill-rule:nonzero;stroke:none"
           id="path18677" /><path
           d="M 438.493,564.826 329.397,548.738 c -1.432,-1.402 -2.803,-2.875 -4.241,-4.287 l 16.735,-101.428 z"
           style="fill:#fa6800;fill-opacity:1;fill-rule:nonzero;stroke:none"
           id="path18679" /><path
           d="m 547.071,653.755 c -17.364,28.59 -35.284,50.143 -53.221,68.087 l -35.931,-6.862 z"
           style="fill:#e21c00;fill-opacity:1;fill-rule:nonzero;stroke:none"
           id="path18681" /><path
           d="m 465.355,648.604 c 3.759,-4.039 8.346,-7.04 12.813,-10.188 3.761,-2.653 1.194,-1.385 -3.569,-7.35 -0.78,-0.973 -1.607,-1.902 -2.845,-1.747 -5.448,0.081 -3.568,6.295 -10.16,3.892 -3.538,-1.297 -1.799,-0.316 -4.762,4.35 -1.232,1.932 -0.826,2.175 5.603,10.868 1.045,1.429 1.702,1.482 2.92,0.175 m 23.873,-18.725 c 0.987,0.84 1.96,-0.546 2.8,-1.135 5.945,-4.159 11.251,-9.039 16.029,-14.488 0.678,-0.789 1.903,-1.474 1.12,-2.809 -1.097,-1.894 -9.288,-1.446 -14.037,5.633 -1.4,2.093 -5.575,8.942 -5.713,9.371 -0.37,1.143 -1.202,2.572 -0.199,3.428 m -50.735,-65.053 149.258,0.331 c -0.449,1.8 -0.969,3.615 -1.683,5.563 -2.013,5.471 -3.422,11.073 -4.034,16.877 -0.472,4.563 -4.157,13.071 -6.583,14.708 -3.265,2.212 -7.056,12.652 -15.358,28.429 -4.3,8.16 -8.644,15.811 -13.022,23.021 l -89.152,61.225 z"
           style="fill:#f24600;fill-opacity:1;fill-rule:nonzero;stroke:none"
           id="path18683" /><path
           d="m 384.476,650.384 c -23.092,-45.039 -39.08,-89.74 -51.107,-98.25 -1.433,-1.014 -2.726,-2.177 -3.972,-3.396 l 109.096,16.088 z"
           style="fill:#f55e00;fill-opacity:1;fill-rule:nonzero;stroke:none"
           id="path18685" /><path
           d="M 457.919,714.98 417.069,704 c -12.233,-16.229 -23.024,-34.951 -32.593,-53.616 l 54.017,-85.558 z"
           style="fill:#f15700;fill-opacity:1;fill-rule:nonzero;stroke:none"
           id="path18687" /><path
           d="m 431.579,721.198 c -5.052,-5.285 -9.884,-11.063 -14.51,-17.198 l 40.85,10.98 z"
           style="fill:#e24b00;fill-opacity:1;fill-rule:nonzero;stroke:none"
           id="path18689" /><path
           d="m 457.919,714.98 35.931,6.862 c -5.633,5.636 -11.27,10.921 -16.891,15.95 -5.072,4.542 -12.179,8.457 -18.129,5.14 -9.734,-5.427 -18.799,-12.89 -27.251,-21.734 z"
           style="fill:#e24d00;fill-opacity:1;fill-rule:nonzero;stroke:none"
           id="path18691" /></g></g></g></svg>
