<svg xmlns="http://www.w3.org/2000/svg" xmlns:xlink="http://www.w3.org/1999/xlink" version="1.1" x="0px" y="0px" viewBox="0 0 100 125" style="enable-background:new 0 0 100 100;" xml:space="preserve"><style type="text/css">
	.st0{fill:none;}
</style><rect class="st0" width="100" height="100"/><path d="M82.7,57.3c-0.2-0.8-1-1.3-1.8-1.1c-0.5,0.1-0.8,0.4-1,0.8l-23.6-4.2c0.1-0.4,0.1-0.8,0.1-1.2c0-0.2,0-0.4,0-0.5l18.9-3.4  c0.1,0.2,0.4,0.4,0.6,0.4c0.5,0.1,0.9-0.3,0.9-0.7c0.1-0.5-0.3-0.9-0.7-0.9c-0.5-0.1-0.9,0.3-0.9,0.7c0,0,0,0.1,0,0.1l-18.9,3.4  c-0.1-0.6-0.3-1.1-0.5-1.6l9.5-5.4c0.3,0.5,0.9,0.9,1.6,1c1.2,0.1,2.3-0.7,2.5-1.9c0.1-1.2-0.7-2.3-1.9-2.5  c-1.2-0.1-2.3,0.7-2.5,1.9c0,0.4,0,0.8,0.2,1.1l-9.5,5.4c-0.3-0.6-0.7-1.1-1.1-1.5l15.2-18.1c0.3,0.2,0.7,0.3,1.1,0.2  c0.8-0.2,1.3-1,1.1-1.8c-0.2-0.8-1-1.3-1.8-1.1c-0.8,0.2-1.3,1-1.1,1.8c0.1,0.3,0.2,0.5,0.4,0.7L54.3,46.9c-0.4-0.3-0.8-0.6-1.3-0.9  l7.2-17.2c0.3,0.1,0.7,0.1,1.1,0c1.1-0.3,1.8-1.4,1.5-2.5c-0.3-1.1-1.4-1.8-2.5-1.5s-1.8,1.4-1.5,2.5c0.1,0.6,0.5,1.1,1,1.3  l-7.2,17.2c-0.5-0.2-1-0.3-1.5-0.4l1.4-16.1c0.1,0,0.3,0,0.4-0.1c0.5-0.3,0.7-0.9,0.5-1.4c-0.3-0.5-0.9-0.7-1.4-0.5  c-0.5,0.3-0.7,0.9-0.5,1.4c0.1,0.3,0.4,0.4,0.6,0.5l-1.4,16.1c-0.2,0-0.3,0-0.5,0c-0.1,0-0.2,0-0.3,0L47.7,18c0,0,0,0,0.1,0  c0.8-0.2,1.3-1,1.1-1.8c-0.2-0.8-1-1.3-1.8-1.1c-0.8,0.2-1.3,1-1.1,1.8c0.2,0.7,0.7,1.1,1.3,1.2l2.2,27.5c-0.3,0-0.7,0.1-1,0.2  l-2.8-10.2c0.6-0.3,0.9-1,0.8-1.7c-0.2-0.8-1-1.3-1.8-1.1c-0.8,0.2-1.3,1-1.1,1.8c0.2,0.8,1,1.3,1.8,1.1l2.8,10.2  c-0.4,0.2-0.9,0.4-1.2,0.6L35.5,28.3c0.1-0.1,0.2-0.1,0.2-0.2c0.4-0.5,0.3-1.3-0.3-1.7c-0.5-0.4-1.3-0.3-1.7,0.3  c-0.4,0.5-0.3,1.3,0.3,1.7c0.3,0.3,0.8,0.3,1.1,0.2l11.5,18.1c-0.5,0.3-0.9,0.7-1.2,1.1l-17-13.9c0.2-0.3,0.4-0.7,0.4-1  c0.1-1.2-0.7-2.3-1.9-2.5c-1.2-0.1-2.3,0.7-2.5,1.9c-0.1,1.2,0.7,2.3,1.9,2.5c0.7,0.1,1.3-0.2,1.8-0.6l17,14  c-0.1,0.2-0.3,0.4-0.4,0.6l-12.3-6.8c0-0.2,0-0.5-0.2-0.7c-0.3-0.3-0.8-0.3-1.1,0c-0.3,0.3-0.3,0.8,0,1.1c0.3,0.3,0.8,0.3,1.1,0  c0,0,0,0,0-0.1L44.6,49c-0.2,0.5-0.4,1-0.5,1.5L25,47.2c0-0.3-0.3-0.6-0.6-0.6c-0.4,0-0.7,0.2-0.8,0.6c0,0.4,0.2,0.7,0.6,0.8  c0.3,0,0.6-0.1,0.7-0.4l19.2,3.3c0,0.2,0,0.4,0,0.7c0,0.1,0,0.1,0,0.2l-23.9,0c-0.1-0.4-0.3-0.7-0.6-1C19,50.2,18,50.4,17.5,51  c-0.5,0.7-0.4,1.6,0.3,2.1c0.7,0.5,1.6,0.4,2.1-0.3c0.2-0.2,0.3-0.5,0.3-0.7l23.9,0c0,0.4,0.1,0.8,0.2,1.1L30.6,57  c-0.3-0.6-1-1-1.7-0.8c-0.8,0.2-1.3,1-1.1,1.8c0.2,0.8,1,1.3,1.8,1.1c0.8-0.2,1.3-1,1.1-1.7l13.7-3.7c0.1,0.4,0.3,0.7,0.5,1.1  L23.7,67c-0.3-0.3-0.7-0.5-1.1-0.4c-0.6,0.1-1,0.7-0.8,1.4c0.1,0.6,0.7,1,1.4,0.8c0.6-0.1,1-0.7,0.8-1.4c0,0,0-0.1,0-0.1l21.3-12.2  c0.2,0.3,0.4,0.6,0.7,0.8L30.8,70c0,0,0,0-0.1,0c-0.4-0.1-0.7,0.1-0.9,0.4c-0.1,0.4,0.1,0.7,0.4,0.9c0.4,0.1,0.7-0.1,0.9-0.4  c0.1-0.2,0-0.4-0.1-0.6l15-14.1c0.4,0.3,0.7,0.6,1.2,0.8L42,66.7c-0.4-0.3-1-0.4-1.5-0.2c-1.1,0.3-1.8,1.4-1.5,2.5  c0.3,1.1,1.4,1.8,2.5,1.5c1.1-0.3,1.8-1.4,1.5-2.5c-0.1-0.4-0.3-0.8-0.6-1l5.4-9.8c0.3,0.1,0.6,0.2,0.9,0.3l-6.3,21.7  c-0.3,0-0.5,0-0.8,0c-1.1,0.3-1.8,1.4-1.5,2.5c0.3,1.1,1.4,1.8,2.5,1.5c1.1-0.3,1.8-1.4,1.5-2.5c-0.2-0.7-0.7-1.2-1.3-1.5l6.3-21.7  c0.4,0.1,0.8,0.1,1.1,0.1L50,82c-0.4,0.1-0.7,0.3-1,0.6c-0.5,0.7-0.4,1.6,0.3,2.1c0.7,0.5,1.6,0.4,2.1-0.3c0.5-0.7,0.4-1.6-0.3-2.1  c-0.2-0.2-0.5-0.3-0.7-0.3l0-24.3c0.4,0,0.7-0.1,1.1-0.1L55.4,72c-0.1,0-0.1,0.1-0.2,0.1c-0.3,0.3-0.3,0.9,0,1.2  c0.3,0.3,0.9,0.3,1.2,0c0.3-0.3,0.3-0.9,0-1.2c-0.2-0.2-0.5-0.3-0.7-0.3l-3.9-14.3c0.4-0.1,0.8-0.3,1.1-0.4l8.7,14.3  c-0.1,0.1-0.1,0.2-0.2,0.3c-0.1,0.4,0.1,0.7,0.4,0.9c0.4,0.1,0.7-0.1,0.9-0.4c0.1-0.4-0.1-0.7-0.4-0.9c-0.1,0-0.2,0-0.3,0l-8.7-14.3  c0.2-0.1,0.4-0.2,0.5-0.4l12.4,14.7c-0.5,0.5-0.7,1.2-0.5,1.9c0.3,1.1,1.4,1.8,2.5,1.5c1.1-0.3,1.8-1.4,1.5-2.5  c-0.3-1.1-1.4-1.8-2.5-1.5c-0.3,0.1-0.5,0.2-0.7,0.3L54.2,56.3c0.4-0.3,0.8-0.8,1.1-1.2l12.9,7.6c-0.1,0.3-0.2,0.6-0.1,0.9  c0.2,0.8,1,1.3,1.8,1.1c0.8-0.2,1.3-1,1.1-1.8c-0.2-0.8-1-1.3-1.8-1.1c-0.3,0.1-0.6,0.3-0.8,0.5l-12.9-7.5c0.3-0.5,0.5-1,0.7-1.6  l23.6,4.2c0,0.2,0,0.4,0,0.6c0.2,0.8,1,1.3,1.8,1.1C82.4,58.9,82.9,58.1,82.7,57.3z"/><text x="0" y="115" fill="#000000" font-size="5px" font-weight="bold" font-family="'Helvetica Neue', Helvetica, Arial-Unicode, Arial, Sans-serif">Created by NeMaria</text><text x="0" y="120" fill="#000000" font-size="5px" font-weight="bold" font-family="'Helvetica Neue', Helvetica, Arial-Unicode, Arial, Sans-serif">from the Noun Project</text></svg>